%TF.GenerationSoftware,KiCad,Pcbnew,6.0.2+dfsg-1*%
%TF.CreationDate,2025-02-18T10:21:26-03:00*%
%TF.ProjectId,modulo_remoteapi_v1_1,6d6f6475-6c6f-45f7-9265-6d6f74656170,rev?*%
%TF.SameCoordinates,Original*%
%TF.FileFunction,Soldermask,Top*%
%TF.FilePolarity,Negative*%
%FSLAX46Y46*%
G04 Gerber Fmt 4.6, Leading zero omitted, Abs format (unit mm)*
G04 Created by KiCad (PCBNEW 6.0.2+dfsg-1) date 2025-02-18 10:21:26*
%MOMM*%
%LPD*%
G01*
G04 APERTURE LIST*
G04 Aperture macros list*
%AMRoundRect*
0 Rectangle with rounded corners*
0 $1 Rounding radius*
0 $2 $3 $4 $5 $6 $7 $8 $9 X,Y pos of 4 corners*
0 Add a 4 corners polygon primitive as box body*
4,1,4,$2,$3,$4,$5,$6,$7,$8,$9,$2,$3,0*
0 Add four circle primitives for the rounded corners*
1,1,$1+$1,$2,$3*
1,1,$1+$1,$4,$5*
1,1,$1+$1,$6,$7*
1,1,$1+$1,$8,$9*
0 Add four rect primitives between the rounded corners*
20,1,$1+$1,$2,$3,$4,$5,0*
20,1,$1+$1,$4,$5,$6,$7,0*
20,1,$1+$1,$6,$7,$8,$9,0*
20,1,$1+$1,$8,$9,$2,$3,0*%
G04 Aperture macros list end*
%ADD10RoundRect,0.250000X0.250000X0.475000X-0.250000X0.475000X-0.250000X-0.475000X0.250000X-0.475000X0*%
%ADD11RoundRect,0.150000X0.825000X0.150000X-0.825000X0.150000X-0.825000X-0.150000X0.825000X-0.150000X0*%
%ADD12C,2.000000*%
%ADD13C,7.000000*%
%ADD14R,1.600000X1.600000*%
%ADD15C,1.600000*%
%ADD16R,1.700000X1.700000*%
%ADD17O,1.700000X1.700000*%
%ADD18RoundRect,0.150000X-0.587500X-0.150000X0.587500X-0.150000X0.587500X0.150000X-0.587500X0.150000X0*%
%ADD19R,3.000000X3.000000*%
%ADD20C,3.000000*%
%ADD21O,1.600000X1.600000*%
%ADD22RoundRect,0.250000X0.312500X0.625000X-0.312500X0.625000X-0.312500X-0.625000X0.312500X-0.625000X0*%
%ADD23RoundRect,0.250000X-0.312500X-0.625000X0.312500X-0.625000X0.312500X0.625000X-0.312500X0.625000X0*%
%ADD24RoundRect,0.150000X0.587500X0.150000X-0.587500X0.150000X-0.587500X-0.150000X0.587500X-0.150000X0*%
%ADD25RoundRect,0.250000X-0.250000X-0.475000X0.250000X-0.475000X0.250000X0.475000X-0.250000X0.475000X0*%
%ADD26C,1.440000*%
%ADD27RoundRect,0.150000X-0.825000X-0.150000X0.825000X-0.150000X0.825000X0.150000X-0.825000X0.150000X0*%
%ADD28C,1.500000*%
G04 APERTURE END LIST*
D10*
%TO.C,C24*%
X-171220000Y-78075000D03*
X-173120000Y-78075000D03*
%TD*%
D11*
%TO.C,U2*%
X-178195000Y-94560000D03*
X-178195000Y-93290000D03*
X-178195000Y-92020000D03*
X-178195000Y-90750000D03*
X-183145000Y-90750000D03*
X-183145000Y-92020000D03*
X-183145000Y-93290000D03*
X-183145000Y-94560000D03*
%TD*%
D12*
%TO.C,FID5*%
X-208500000Y-48530000D03*
%TD*%
D13*
%TO.C,H1*%
X-315065000Y-26500000D03*
%TD*%
D14*
%TO.C,C21*%
X-199970000Y-55420000D03*
D15*
X-197470000Y-55420000D03*
%TD*%
D16*
%TO.C,J7*%
X-286130000Y-110280000D03*
D17*
X-286130000Y-107740000D03*
X-286130000Y-105200000D03*
%TD*%
D18*
%TO.C,D2*%
X-207955834Y-90850000D03*
X-207955834Y-92750000D03*
X-206080834Y-91800000D03*
%TD*%
D19*
%TO.C,J23*%
X-315065000Y-59440000D03*
D20*
X-315065000Y-64520000D03*
X-315065000Y-69600000D03*
X-315065000Y-74680000D03*
%TD*%
D14*
%TO.C,U11*%
X-266381666Y-60266666D03*
D21*
X-263841666Y-60266666D03*
X-261301666Y-60266666D03*
X-261301666Y-52646666D03*
X-263841666Y-52646666D03*
X-266381666Y-52646666D03*
%TD*%
D11*
%TO.C,U4*%
X-196195000Y-94705000D03*
X-196195000Y-93435000D03*
X-196195000Y-92165000D03*
X-196195000Y-90895000D03*
X-201145000Y-90895000D03*
X-201145000Y-92165000D03*
X-201145000Y-93435000D03*
X-201145000Y-94705000D03*
%TD*%
D22*
%TO.C,R40*%
X-222630834Y-60266666D03*
X-225555834Y-60266666D03*
%TD*%
%TO.C,R26*%
X-226292500Y-140600000D03*
X-229217500Y-140600000D03*
%TD*%
D18*
%TO.C,D4*%
X-208085834Y-66350000D03*
X-208085834Y-68250000D03*
X-206210834Y-67300000D03*
%TD*%
D16*
%TO.C,J25*%
X-286130000Y-134080000D03*
D17*
X-286130000Y-131540000D03*
%TD*%
D11*
%TO.C,U8*%
X-196325000Y-70205000D03*
X-196325000Y-68935000D03*
X-196325000Y-67665000D03*
X-196325000Y-66395000D03*
X-201275000Y-66395000D03*
X-201275000Y-67665000D03*
X-201275000Y-68935000D03*
X-201275000Y-70205000D03*
%TD*%
D10*
%TO.C,C10*%
X-171220000Y-102175000D03*
X-173120000Y-102175000D03*
%TD*%
D23*
%TO.C,R25*%
X-229217500Y-135300000D03*
X-226292500Y-135300000D03*
%TD*%
D15*
%TO.C,C6*%
X-306340000Y-51750000D03*
X-306340000Y-49250000D03*
%TD*%
D22*
%TO.C,R31*%
X-253537500Y-82588333D03*
X-256462500Y-82588333D03*
%TD*%
D16*
%TO.C,J4*%
X-281565000Y-144280000D03*
D17*
X-281565000Y-141740000D03*
X-281565000Y-139200000D03*
%TD*%
D14*
%TO.C,U12*%
X-266381666Y-75144999D03*
D21*
X-263841666Y-75144999D03*
X-261301666Y-75144999D03*
X-261301666Y-67524999D03*
X-263841666Y-67524999D03*
X-266381666Y-67524999D03*
%TD*%
D19*
%TO.C,J24*%
X-315065000Y-93460000D03*
D20*
X-315065000Y-98540000D03*
X-315065000Y-103620000D03*
X-315065000Y-108700000D03*
%TD*%
D16*
%TO.C,J6*%
X-277065000Y-144280000D03*
D17*
X-277065000Y-141740000D03*
X-277065000Y-139200000D03*
%TD*%
D11*
%TO.C,U1*%
X-178525000Y-45260000D03*
X-178525000Y-43990000D03*
X-178525000Y-42720000D03*
X-178525000Y-41450000D03*
X-183475000Y-41450000D03*
X-183475000Y-42720000D03*
X-183475000Y-43990000D03*
X-183475000Y-45260000D03*
%TD*%
D15*
%TO.C,C1*%
X-306340000Y-85250000D03*
X-306340000Y-82750000D03*
%TD*%
D14*
%TO.C,C8*%
X-299565000Y-52902651D03*
D15*
X-299565000Y-47902651D03*
%TD*%
D11*
%TO.C,U7*%
X-196455000Y-118705000D03*
X-196455000Y-117435000D03*
X-196455000Y-116165000D03*
X-196455000Y-114895000D03*
X-201405000Y-114895000D03*
X-201405000Y-116165000D03*
X-201405000Y-117435000D03*
X-201405000Y-118705000D03*
%TD*%
D16*
%TO.C,J10*%
X-286065000Y-42050000D03*
D17*
X-286065000Y-39510000D03*
X-286065000Y-36970000D03*
%TD*%
D24*
%TO.C,Q7*%
X-216795834Y-75514999D03*
X-216795834Y-73614999D03*
X-218670834Y-74564999D03*
%TD*%
D25*
%TO.C,C20*%
X-199620000Y-97550000D03*
X-197720000Y-97550000D03*
%TD*%
%TO.C,C33*%
X-199880000Y-121635000D03*
X-197980000Y-121635000D03*
%TD*%
D22*
%TO.C,R11*%
X-197537500Y-38300000D03*
X-200462500Y-38300000D03*
%TD*%
D14*
%TO.C,C30*%
X-181750000Y-79655000D03*
D15*
X-179250000Y-79655000D03*
%TD*%
D14*
%TO.C,C29*%
X-181880000Y-128395000D03*
D15*
X-179380000Y-128395000D03*
%TD*%
D11*
%TO.C,U6*%
X-178325000Y-70060000D03*
X-178325000Y-68790000D03*
X-178325000Y-67520000D03*
X-178325000Y-66250000D03*
X-183275000Y-66250000D03*
X-183275000Y-67520000D03*
X-183275000Y-68790000D03*
X-183275000Y-70060000D03*
%TD*%
D12*
%TO.C,FID4*%
X-261000000Y-97500000D03*
%TD*%
D10*
%TO.C,C12*%
X-171220000Y-90805000D03*
X-173120000Y-90805000D03*
%TD*%
D24*
%TO.C,Q1*%
X-247342500Y-90578333D03*
X-247342500Y-88678333D03*
X-249217500Y-89628333D03*
%TD*%
D14*
%TO.C,C7*%
X-299565000Y-120902651D03*
D15*
X-299565000Y-115902651D03*
%TD*%
D14*
%TO.C,U16*%
X-235525000Y-75144999D03*
D21*
X-232985000Y-75144999D03*
X-230445000Y-75144999D03*
X-230445000Y-67524999D03*
X-232985000Y-67524999D03*
X-235525000Y-67524999D03*
%TD*%
D22*
%TO.C,R2*%
X-164090000Y-97415000D03*
X-167015000Y-97415000D03*
%TD*%
D24*
%TO.C,Q5*%
X-216795834Y-90543333D03*
X-216795834Y-88643333D03*
X-218670834Y-89593333D03*
%TD*%
D14*
%TO.C,C4*%
X-299565000Y-153800302D03*
D15*
X-299565000Y-148800302D03*
%TD*%
D10*
%TO.C,C17*%
X-189630000Y-38040000D03*
X-191530000Y-38040000D03*
%TD*%
D19*
%TO.C,J21*%
X-249951666Y-150500000D03*
D20*
X-244871666Y-150500000D03*
%TD*%
D22*
%TO.C,R4*%
X-170127500Y-97415000D03*
X-173052500Y-97415000D03*
%TD*%
D16*
%TO.C,J5*%
X-277065000Y-75890000D03*
D17*
X-277065000Y-73350000D03*
X-277065000Y-70810000D03*
%TD*%
D16*
%TO.C,J8*%
X-281565000Y-110280000D03*
D17*
X-281565000Y-107740000D03*
X-281565000Y-105200000D03*
%TD*%
D14*
%TO.C,C16*%
X-181620000Y-103785000D03*
D15*
X-179120000Y-103785000D03*
%TD*%
D14*
%TO.C,C36*%
X-199750000Y-79800000D03*
D15*
X-197250000Y-79800000D03*
%TD*%
D23*
%TO.C,R9*%
X-191462500Y-48550000D03*
X-188537500Y-48550000D03*
%TD*%
D24*
%TO.C,Q6*%
X-216795834Y-60636666D03*
X-216795834Y-58736666D03*
X-218670834Y-59686666D03*
%TD*%
D14*
%TO.C,C35*%
X-199842379Y-128395000D03*
D15*
X-197342379Y-128395000D03*
%TD*%
D13*
%TO.C,H4*%
X-165000000Y-151000000D03*
%TD*%
D19*
%TO.C,J20*%
X-315065000Y-34430000D03*
D20*
X-315065000Y-39510000D03*
X-315065000Y-44590000D03*
X-315065000Y-49670000D03*
%TD*%
D13*
%TO.C,H2*%
X-165000000Y-26500000D03*
%TD*%
D23*
%TO.C,R10*%
X-191132500Y-97570000D03*
X-188207500Y-97570000D03*
%TD*%
D13*
%TO.C,H3*%
X-315065000Y-151000000D03*
%TD*%
D14*
%TO.C,U17*%
X-235525000Y-45323333D03*
D21*
X-232985000Y-45323333D03*
X-230445000Y-45323333D03*
X-230445000Y-37703333D03*
X-232985000Y-37703333D03*
X-235525000Y-37703333D03*
%TD*%
D22*
%TO.C,R20*%
X-188337500Y-66600000D03*
X-191262500Y-66600000D03*
%TD*%
D14*
%TO.C,C3*%
X-299565000Y-86402651D03*
D15*
X-299565000Y-81402651D03*
%TD*%
D14*
%TO.C,C15*%
X-181970000Y-55275000D03*
D15*
X-179470000Y-55275000D03*
%TD*%
D14*
%TO.C,A1*%
X-303905000Y-58110000D03*
D21*
X-303905000Y-60650000D03*
X-303905000Y-63190000D03*
X-303905000Y-65730000D03*
X-303905000Y-68270000D03*
X-303905000Y-70810000D03*
X-303905000Y-73350000D03*
X-303905000Y-75890000D03*
X-291205000Y-75890000D03*
X-291205000Y-73350000D03*
X-291205000Y-70810000D03*
X-291205000Y-68270000D03*
X-291205000Y-65730000D03*
X-291205000Y-63190000D03*
X-291205000Y-60650000D03*
X-291205000Y-58110000D03*
%TD*%
D23*
%TO.C,R22*%
X-191262500Y-73170000D03*
X-188337500Y-73170000D03*
%TD*%
%TO.C,R34*%
X-250202500Y-37703333D03*
X-247277500Y-37703333D03*
%TD*%
D14*
%TO.C,U15*%
X-235525000Y-60266666D03*
D21*
X-232985000Y-60266666D03*
X-230445000Y-60266666D03*
X-230445000Y-52646666D03*
X-232985000Y-52646666D03*
X-235525000Y-52646666D03*
%TD*%
D22*
%TO.C,R23*%
X-197467500Y-111635000D03*
X-200392500Y-111635000D03*
%TD*%
%TO.C,R5*%
X-170457500Y-38025000D03*
X-173382500Y-38025000D03*
%TD*%
%TO.C,R30*%
X-253637500Y-60301666D03*
X-256562500Y-60301666D03*
%TD*%
D14*
%TO.C,A3*%
X-303905000Y-92500000D03*
D21*
X-303905000Y-95040000D03*
X-303905000Y-97580000D03*
X-303905000Y-100120000D03*
X-303905000Y-102660000D03*
X-303905000Y-105200000D03*
X-303905000Y-107740000D03*
X-303905000Y-110280000D03*
X-291205000Y-110280000D03*
X-291205000Y-107740000D03*
X-291205000Y-105200000D03*
X-291205000Y-102660000D03*
X-291205000Y-100120000D03*
X-291205000Y-97580000D03*
X-291205000Y-95040000D03*
X-291205000Y-92500000D03*
%TD*%
D22*
%TO.C,R1*%
X-164420000Y-48395000D03*
X-167345000Y-48395000D03*
%TD*%
D24*
%TO.C,Q8*%
X-216795834Y-45693333D03*
X-216795834Y-43793333D03*
X-218670834Y-44743333D03*
%TD*%
D10*
%TO.C,C31*%
X-189560000Y-111375000D03*
X-191460000Y-111375000D03*
%TD*%
D14*
%TO.C,A4*%
X-303840000Y-24270000D03*
D21*
X-303840000Y-26810000D03*
X-303840000Y-29350000D03*
X-303840000Y-31890000D03*
X-303840000Y-34430000D03*
X-303840000Y-36970000D03*
X-303840000Y-39510000D03*
X-303840000Y-42050000D03*
X-291140000Y-42050000D03*
X-291140000Y-39510000D03*
X-291140000Y-36970000D03*
X-291140000Y-34430000D03*
X-291140000Y-31890000D03*
X-291140000Y-29350000D03*
X-291140000Y-26810000D03*
X-291140000Y-24270000D03*
%TD*%
D19*
%TO.C,J16*%
X-234335000Y-150500000D03*
D20*
X-229255000Y-150500000D03*
X-224175000Y-150500000D03*
X-219095000Y-150500000D03*
%TD*%
D10*
%TO.C,C23*%
X-171480000Y-126010000D03*
X-173380000Y-126010000D03*
%TD*%
D14*
%TO.C,C22*%
X-199620000Y-103930000D03*
D15*
X-197120000Y-103930000D03*
%TD*%
D14*
%TO.C,C38*%
X-226030000Y-118945000D03*
D15*
X-228530000Y-118945000D03*
%TD*%
D14*
%TO.C,A2*%
X-303905000Y-126500000D03*
D21*
X-303905000Y-129040000D03*
X-303905000Y-131580000D03*
X-303905000Y-134120000D03*
X-303905000Y-136660000D03*
X-303905000Y-139200000D03*
X-303905000Y-141740000D03*
X-303905000Y-144280000D03*
X-291205000Y-144280000D03*
X-291205000Y-141740000D03*
X-291205000Y-139200000D03*
X-291205000Y-136660000D03*
X-291205000Y-134120000D03*
X-291205000Y-131580000D03*
X-291205000Y-129040000D03*
X-291205000Y-126500000D03*
%TD*%
D25*
%TO.C,C28*%
X-181750000Y-72905000D03*
X-179850000Y-72905000D03*
%TD*%
D22*
%TO.C,R36*%
X-253637500Y-45358333D03*
X-256562500Y-45358333D03*
%TD*%
D14*
%TO.C,U10*%
X-266281666Y-90173333D03*
D21*
X-263741666Y-90173333D03*
X-261201666Y-90173333D03*
X-261201666Y-82553333D03*
X-263741666Y-82553333D03*
X-266281666Y-82553333D03*
%TD*%
D14*
%TO.C,U13*%
X-266381666Y-45323333D03*
D21*
X-263841666Y-45323333D03*
X-261301666Y-45323333D03*
X-261301666Y-37703333D03*
X-263841666Y-37703333D03*
X-266381666Y-37703333D03*
%TD*%
D25*
%TO.C,C27*%
X-181880000Y-121490000D03*
X-179980000Y-121490000D03*
%TD*%
D16*
%TO.C,J28*%
X-286065000Y-31890000D03*
D17*
X-286065000Y-29350000D03*
%TD*%
D15*
%TO.C,C2*%
X-306340000Y-152647651D03*
X-306340000Y-150147651D03*
%TD*%
D22*
%TO.C,R35*%
X-253637500Y-75179999D03*
X-256562500Y-75179999D03*
%TD*%
D10*
%TO.C,C32*%
X-189430000Y-62790000D03*
X-191330000Y-62790000D03*
%TD*%
D16*
%TO.C,J3*%
X-281565000Y-75890000D03*
D17*
X-281565000Y-73350000D03*
X-281565000Y-70810000D03*
%TD*%
D12*
%TO.C,FID1*%
X-174500000Y-27000000D03*
%TD*%
D23*
%TO.C,R41*%
X-219555834Y-82553333D03*
X-216630834Y-82553333D03*
%TD*%
D10*
%TO.C,C25*%
X-171480000Y-114805000D03*
X-173380000Y-114805000D03*
%TD*%
D19*
%TO.C,J22*%
X-315000000Y-118880000D03*
D20*
X-315000000Y-123960000D03*
X-315000000Y-129040000D03*
X-315000000Y-134120000D03*
%TD*%
D14*
%TO.C,U14*%
X-235525000Y-90173333D03*
D21*
X-232985000Y-90173333D03*
X-230445000Y-90173333D03*
X-230445000Y-82553333D03*
X-232985000Y-82553333D03*
X-235525000Y-82553333D03*
%TD*%
D10*
%TO.C,C11*%
X-171550000Y-41505000D03*
X-173450000Y-41505000D03*
%TD*%
D22*
%TO.C,R44*%
X-222630834Y-45323333D03*
X-225555834Y-45323333D03*
%TD*%
D16*
%TO.C,J15*%
X-261000000Y-130475000D03*
D17*
X-261000000Y-127935000D03*
X-261000000Y-125395000D03*
X-261000000Y-122855000D03*
X-261000000Y-120315000D03*
X-261000000Y-117775000D03*
X-261000000Y-115235000D03*
X-261000000Y-112695000D03*
X-261000000Y-110155000D03*
X-261000000Y-107615000D03*
X-261000000Y-105075000D03*
X-261000000Y-102535000D03*
%TD*%
D22*
%TO.C,R19*%
X-188467500Y-115100000D03*
X-191392500Y-115100000D03*
%TD*%
%TO.C,R7*%
X-188537500Y-41800000D03*
X-191462500Y-41800000D03*
%TD*%
D25*
%TO.C,C14*%
X-181620000Y-97710000D03*
X-179720000Y-97710000D03*
%TD*%
D16*
%TO.C,J9*%
X-277065000Y-110280000D03*
D17*
X-277065000Y-107740000D03*
X-277065000Y-105200000D03*
%TD*%
D22*
%TO.C,R39*%
X-222630834Y-90173333D03*
X-225555834Y-90173333D03*
%TD*%
%TO.C,R18*%
X-170257500Y-62775000D03*
X-173182500Y-62775000D03*
%TD*%
%TO.C,R12*%
X-197207500Y-87370000D03*
X-200132500Y-87370000D03*
%TD*%
D19*
%TO.C,J17*%
X-244871666Y-26500000D03*
D20*
X-249951666Y-26500000D03*
X-255031666Y-26500000D03*
X-260111666Y-26500000D03*
X-265191666Y-26500000D03*
%TD*%
D16*
%TO.C,J2*%
X-286130000Y-144280000D03*
D17*
X-286130000Y-141740000D03*
X-286130000Y-139200000D03*
%TD*%
D22*
%TO.C,R43*%
X-222630834Y-75144999D03*
X-225555834Y-75144999D03*
%TD*%
D10*
%TO.C,C26*%
X-171350000Y-66305000D03*
X-173250000Y-66305000D03*
%TD*%
D22*
%TO.C,R24*%
X-197337500Y-63050000D03*
X-200262500Y-63050000D03*
%TD*%
D16*
%TO.C,J12*%
X-277000000Y-42050000D03*
D17*
X-277000000Y-39510000D03*
X-277000000Y-36970000D03*
%TD*%
D10*
%TO.C,C37*%
X-226630000Y-124245000D03*
X-228530000Y-124245000D03*
%TD*%
D23*
%TO.C,R33*%
X-250202500Y-67524999D03*
X-247277500Y-67524999D03*
%TD*%
D10*
%TO.C,C18*%
X-189110000Y-87180000D03*
X-191010000Y-87180000D03*
%TD*%
D15*
%TO.C,C5*%
X-306340000Y-119750000D03*
X-306340000Y-117250000D03*
%TD*%
D23*
%TO.C,R28*%
X-250202500Y-52646666D03*
X-247277500Y-52646666D03*
%TD*%
D16*
%TO.C,J14*%
X-230445000Y-103000000D03*
D17*
X-230445000Y-105540000D03*
X-230445000Y-108080000D03*
X-230445000Y-110620000D03*
%TD*%
D22*
%TO.C,R37*%
X-253637500Y-67559999D03*
X-256562500Y-67559999D03*
%TD*%
%TO.C,R38*%
X-253637500Y-37738333D03*
X-256562500Y-37738333D03*
%TD*%
D19*
%TO.C,J19*%
X-214015000Y-26500000D03*
D20*
X-219095000Y-26500000D03*
X-224175000Y-26500000D03*
X-229255000Y-26500000D03*
X-234335000Y-26500000D03*
%TD*%
D23*
%TO.C,R42*%
X-219555834Y-52646666D03*
X-216630834Y-52646666D03*
%TD*%
D22*
%TO.C,R13*%
X-164350000Y-121500000D03*
X-167275000Y-121500000D03*
%TD*%
D18*
%TO.C,D3*%
X-208215834Y-114850000D03*
X-208215834Y-116750000D03*
X-206340834Y-115800000D03*
%TD*%
D16*
%TO.C,J11*%
X-281500000Y-42050000D03*
D17*
X-281500000Y-39510000D03*
X-281500000Y-36970000D03*
%TD*%
D22*
%TO.C,R17*%
X-170387500Y-111360000D03*
X-173312500Y-111360000D03*
%TD*%
D16*
%TO.C,J27*%
X-286130000Y-100120000D03*
D17*
X-286130000Y-97580000D03*
%TD*%
D23*
%TO.C,R46*%
X-219555834Y-37703333D03*
X-216630834Y-37703333D03*
%TD*%
D12*
%TO.C,FID2*%
X-314500000Y-141500000D03*
%TD*%
D23*
%TO.C,R27*%
X-250102500Y-82553333D03*
X-247177500Y-82553333D03*
%TD*%
D16*
%TO.C,J13*%
X-246210000Y-103000000D03*
D17*
X-246210000Y-105540000D03*
X-246210000Y-108080000D03*
X-246210000Y-110620000D03*
X-246210000Y-113160000D03*
X-246210000Y-115700000D03*
X-246210000Y-118240000D03*
X-246210000Y-120780000D03*
%TD*%
D22*
%TO.C,R29*%
X-253537500Y-90208333D03*
X-256462500Y-90208333D03*
%TD*%
D26*
%TO.C,RV1*%
X-219065000Y-140580000D03*
X-219065000Y-138040000D03*
X-219065000Y-135500000D03*
%TD*%
D22*
%TO.C,R16*%
X-170257500Y-72915000D03*
X-173182500Y-72915000D03*
%TD*%
D24*
%TO.C,Q2*%
X-247442500Y-60671666D03*
X-247442500Y-58771666D03*
X-249317500Y-59721666D03*
%TD*%
D11*
%TO.C,U3*%
X-196525000Y-45405000D03*
X-196525000Y-44135000D03*
X-196525000Y-42865000D03*
X-196525000Y-41595000D03*
X-201475000Y-41595000D03*
X-201475000Y-42865000D03*
X-201475000Y-44135000D03*
X-201475000Y-45405000D03*
%TD*%
D27*
%TO.C,U9*%
X-230230000Y-126795000D03*
X-230230000Y-128065000D03*
X-230230000Y-129335000D03*
X-230230000Y-130605000D03*
X-225280000Y-130605000D03*
X-225280000Y-129335000D03*
X-225280000Y-128065000D03*
X-225280000Y-126795000D03*
%TD*%
D24*
%TO.C,Q4*%
X-247442500Y-45728333D03*
X-247442500Y-43828333D03*
X-249317500Y-44778333D03*
%TD*%
D19*
%TO.C,J18*%
X-183340000Y-26500000D03*
D20*
X-188420000Y-26500000D03*
X-193500000Y-26500000D03*
X-198580000Y-26500000D03*
X-203660000Y-26500000D03*
%TD*%
D10*
%TO.C,C9*%
X-171350000Y-53625000D03*
X-173250000Y-53625000D03*
%TD*%
D18*
%TO.C,D1*%
X-208285834Y-41550000D03*
X-208285834Y-43450000D03*
X-206410834Y-42500000D03*
%TD*%
D22*
%TO.C,R14*%
X-164220000Y-72915000D03*
X-167145000Y-72915000D03*
%TD*%
D23*
%TO.C,R45*%
X-219555834Y-67524999D03*
X-216630834Y-67524999D03*
%TD*%
D25*
%TO.C,C34*%
X-199750000Y-73170000D03*
X-197850000Y-73170000D03*
%TD*%
D22*
%TO.C,R15*%
X-170387500Y-121500000D03*
X-173312500Y-121500000D03*
%TD*%
D12*
%TO.C,FID6*%
X-208500000Y-121635000D03*
%TD*%
D16*
%TO.C,J1*%
X-286130000Y-75890000D03*
D17*
X-286130000Y-73350000D03*
X-286130000Y-70810000D03*
%TD*%
D25*
%TO.C,C13*%
X-181950000Y-48385000D03*
X-180050000Y-48385000D03*
%TD*%
D22*
%TO.C,R32*%
X-253637500Y-52681666D03*
X-256562500Y-52681666D03*
%TD*%
%TO.C,R8*%
X-188207500Y-91100000D03*
X-191132500Y-91100000D03*
%TD*%
%TO.C,R3*%
X-170457500Y-48395000D03*
X-173382500Y-48395000D03*
%TD*%
D28*
%TO.C,TP5*%
X-214500000Y-135500000D03*
%TD*%
D16*
%TO.C,J26*%
X-286130000Y-65730000D03*
D17*
X-286130000Y-63190000D03*
%TD*%
D22*
%TO.C,R6*%
X-170127500Y-87525000D03*
X-173052500Y-87525000D03*
%TD*%
D25*
%TO.C,C19*%
X-199950000Y-48530000D03*
X-198050000Y-48530000D03*
%TD*%
D11*
%TO.C,U5*%
X-178455000Y-118560000D03*
X-178455000Y-117290000D03*
X-178455000Y-116020000D03*
X-178455000Y-114750000D03*
X-183405000Y-114750000D03*
X-183405000Y-116020000D03*
X-183405000Y-117290000D03*
X-183405000Y-118560000D03*
%TD*%
D23*
%TO.C,R21*%
X-191392500Y-121655000D03*
X-188467500Y-121655000D03*
%TD*%
D24*
%TO.C,Q3*%
X-247442500Y-75549999D03*
X-247442500Y-73649999D03*
X-249317500Y-74599999D03*
%TD*%
D12*
%TO.C,FID3*%
X-237000000Y-34000000D03*
%TD*%
M02*
