M48
; DRILL file {KiCad 6.0.2+dfsg-1} date mar 18 feb 2025 10:21:37
; FORMAT={-:-/ absolute / metric / decimal}
; #@! TF.CreationDate,2025-02-18T10:21:37-03:00
; #@! TF.GenerationSoftware,Kicad,Pcbnew,6.0.2+dfsg-1
; #@! TF.FileFunction,Plated,1,2,PTH
FMAT,2
METRIC
; #@! TA.AperFunction,Plated,PTH,ViaDrill
T1C0.400
; #@! TA.AperFunction,Plated,PTH,ComponentDrill
T2C0.800
; #@! TA.AperFunction,Plated,PTH,ComponentDrill
T3C1.000
; #@! TA.AperFunction,Plated,PTH,ComponentDrill
T4C1.520
; #@! TA.AperFunction,Plated,PTH,ComponentDrill
T5C3.500
%
G90
G05
T1
X-254.0Y-135.5
X-254.0Y-143.5
X-252.0Y-41.0
X-252.0Y-56.0
X-252.0Y-71.0
X-252.0Y-86.5
X-234.5Y-128.0
X-222.5Y-39.0
X-222.5Y-52.5
X-222.5Y-67.5
X-222.5Y-82.5
X-221.295Y-126.795
X-210.5Y-113.0
X-208.5Y-45.5
X-208.5Y-70.5
X-208.5Y-95.0
X-208.5Y-119.0
X-206.5Y-39.5
X-206.5Y-64.0
X-206.5Y-88.0
X-198.5Y-135.0
X-175.0Y-43.0
X-175.0Y-67.5
X-175.0Y-92.0
X-175.0Y-116.0
T2
X-306.34Y-49.25
X-306.34Y-51.75
X-306.34Y-82.75
X-306.34Y-85.25
X-306.34Y-117.25
X-306.34Y-119.75
X-306.34Y-150.148
X-306.34Y-152.648
X-303.905Y-58.11
X-303.905Y-60.65
X-303.905Y-63.19
X-303.905Y-65.73
X-303.905Y-68.27
X-303.905Y-70.81
X-303.905Y-73.35
X-303.905Y-75.89
X-303.905Y-92.5
X-303.905Y-95.04
X-303.905Y-97.58
X-303.905Y-100.12
X-303.905Y-102.66
X-303.905Y-105.2
X-303.905Y-107.74
X-303.905Y-110.28
X-303.905Y-126.5
X-303.905Y-129.04
X-303.905Y-131.58
X-303.905Y-134.12
X-303.905Y-136.66
X-303.905Y-139.2
X-303.905Y-141.74
X-303.905Y-144.28
X-303.84Y-24.27
X-303.84Y-26.81
X-303.84Y-29.35
X-303.84Y-31.89
X-303.84Y-34.43
X-303.84Y-36.97
X-303.84Y-39.51
X-303.84Y-42.05
X-299.565Y-47.903
X-299.565Y-52.903
X-299.565Y-81.403
X-299.565Y-86.403
X-299.565Y-115.903
X-299.565Y-120.903
X-299.565Y-148.8
X-299.565Y-153.8
X-291.205Y-58.11
X-291.205Y-60.65
X-291.205Y-63.19
X-291.205Y-65.73
X-291.205Y-68.27
X-291.205Y-70.81
X-291.205Y-73.35
X-291.205Y-75.89
X-291.205Y-92.5
X-291.205Y-95.04
X-291.205Y-97.58
X-291.205Y-100.12
X-291.205Y-102.66
X-291.205Y-105.2
X-291.205Y-107.74
X-291.205Y-110.28
X-291.205Y-126.5
X-291.205Y-129.04
X-291.205Y-131.58
X-291.205Y-134.12
X-291.205Y-136.66
X-291.205Y-139.2
X-291.205Y-141.74
X-291.205Y-144.28
X-291.14Y-24.27
X-291.14Y-26.81
X-291.14Y-29.35
X-291.14Y-31.89
X-291.14Y-34.43
X-291.14Y-36.97
X-291.14Y-39.51
X-291.14Y-42.05
X-266.382Y-37.703
X-266.382Y-45.323
X-266.382Y-52.647
X-266.382Y-60.267
X-266.382Y-67.525
X-266.382Y-75.145
X-266.282Y-82.553
X-266.282Y-90.173
X-263.842Y-37.703
X-263.842Y-45.323
X-263.842Y-52.647
X-263.842Y-60.267
X-263.842Y-67.525
X-263.842Y-75.145
X-263.742Y-82.553
X-263.742Y-90.173
X-261.302Y-37.703
X-261.302Y-45.323
X-261.302Y-52.647
X-261.302Y-60.267
X-261.302Y-67.525
X-261.302Y-75.145
X-261.202Y-82.553
X-261.202Y-90.173
X-235.525Y-37.703
X-235.525Y-45.323
X-235.525Y-52.647
X-235.525Y-60.267
X-235.525Y-67.525
X-235.525Y-75.145
X-235.525Y-82.553
X-235.525Y-90.173
X-232.985Y-37.703
X-232.985Y-45.323
X-232.985Y-52.647
X-232.985Y-60.267
X-232.985Y-67.525
X-232.985Y-75.145
X-232.985Y-82.553
X-232.985Y-90.173
X-230.445Y-37.703
X-230.445Y-45.323
X-230.445Y-52.647
X-230.445Y-60.267
X-230.445Y-67.525
X-230.445Y-75.145
X-230.445Y-82.553
X-230.445Y-90.173
X-228.53Y-118.945
X-226.03Y-118.945
X-219.065Y-135.5
X-219.065Y-138.04
X-219.065Y-140.58
X-199.97Y-55.42
X-199.842Y-128.395
X-199.75Y-79.8
X-199.62Y-103.93
X-197.47Y-55.42
X-197.342Y-128.395
X-197.25Y-79.8
X-197.12Y-103.93
X-181.97Y-55.275
X-181.88Y-128.395
X-181.75Y-79.655
X-181.62Y-103.785
X-179.47Y-55.275
X-179.38Y-128.395
X-179.25Y-79.655
X-179.12Y-103.785
T3
X-286.13Y-63.19
X-286.13Y-65.73
X-286.13Y-70.81
X-286.13Y-73.35
X-286.13Y-75.89
X-286.13Y-97.58
X-286.13Y-100.12
X-286.13Y-105.2
X-286.13Y-107.74
X-286.13Y-110.28
X-286.13Y-131.54
X-286.13Y-134.08
X-286.13Y-139.2
X-286.13Y-141.74
X-286.13Y-144.28
X-286.065Y-29.35
X-286.065Y-31.89
X-286.065Y-36.97
X-286.065Y-39.51
X-286.065Y-42.05
X-281.565Y-70.81
X-281.565Y-73.35
X-281.565Y-75.89
X-281.565Y-105.2
X-281.565Y-107.74
X-281.565Y-110.28
X-281.565Y-139.2
X-281.565Y-141.74
X-281.565Y-144.28
X-281.5Y-36.97
X-281.5Y-39.51
X-281.5Y-42.05
X-277.065Y-70.81
X-277.065Y-73.35
X-277.065Y-75.89
X-277.065Y-105.2
X-277.065Y-107.74
X-277.065Y-110.28
X-277.065Y-139.2
X-277.065Y-141.74
X-277.065Y-144.28
X-277.0Y-36.97
X-277.0Y-39.51
X-277.0Y-42.05
X-261.0Y-102.535
X-261.0Y-105.075
X-261.0Y-107.615
X-261.0Y-110.155
X-261.0Y-112.695
X-261.0Y-115.235
X-261.0Y-117.775
X-261.0Y-120.315
X-261.0Y-122.855
X-261.0Y-125.395
X-261.0Y-127.935
X-261.0Y-130.475
X-246.21Y-103.0
X-246.21Y-105.54
X-246.21Y-108.08
X-246.21Y-110.62
X-246.21Y-113.16
X-246.21Y-115.7
X-246.21Y-118.24
X-246.21Y-120.78
X-230.445Y-103.0
X-230.445Y-105.54
X-230.445Y-108.08
X-230.445Y-110.62
T4
X-315.065Y-34.43
X-315.065Y-39.51
X-315.065Y-44.59
X-315.065Y-49.67
X-315.065Y-59.44
X-315.065Y-64.52
X-315.065Y-69.6
X-315.065Y-74.68
X-315.065Y-93.46
X-315.065Y-98.54
X-315.065Y-103.62
X-315.065Y-108.7
X-315.0Y-118.88
X-315.0Y-123.96
X-315.0Y-129.04
X-315.0Y-134.12
X-265.192Y-26.5
X-260.112Y-26.5
X-255.032Y-26.5
X-249.952Y-26.5
X-249.952Y-150.5
X-244.872Y-26.5
X-244.872Y-150.5
X-234.335Y-26.5
X-234.335Y-150.5
X-229.255Y-26.5
X-229.255Y-150.5
X-224.175Y-26.5
X-224.175Y-150.5
X-219.095Y-26.5
X-219.095Y-150.5
X-214.015Y-26.5
X-203.66Y-26.5
X-198.58Y-26.5
X-193.5Y-26.5
X-188.42Y-26.5
X-183.34Y-26.5
T5
X-315.065Y-26.5
X-315.065Y-151.0
X-165.0Y-26.5
X-165.0Y-151.0
T0
M30
